<svg xmlns="http://www.w3.org/2000/svg" viewBox="0 0 200 200" width="100%" height="100%" fill="none">
  <defs>
    <linearGradient id="goldGrad1" x1="0%" y1="0%" x2="100%" y2="100%">
      <stop offset="0%" stop-color="#fbbf24" stop-opacity="0.95" />
      <stop offset="50%" stop-color="#e3a857" stop-opacity="0.85" />
      <stop offset="100%" stop-color="#b98640" stop-opacity="0.9" />
    </linearGradient>
    <linearGradient id="goldGrad2" x1="100%" y1="0%" x2="0%" y2="100%">
      <stop offset="0%" stop-color="#e3a857" stop-opacity="0.8" />
      <stop offset="100%" stop-color="#d97706" stop-opacity="0.95" />
    </linearGradient>
    <filter id="amberGlow" x="-20%" y="-20%" width="140%" height="140%">
      <feDropShadow dx="0" dy="0" stdDeviation="3" flood-color="#e3a857" flood-opacity="0.5"/>
    </filter>
  </defs>
  <g filter="url(#amberGlow)">
    <!-- Outer Corded / Braided Ring -->
    <circle cx="100" cy="100" r="92" stroke="#e3a857" stroke-width="2.5" opacity="0.95"/>
    <circle cx="100" cy="100" r="84" stroke="#e3a857" stroke-width="1.8" opacity="0.85"/>
    <line x1="184.00" y1="100.00" x2="191.34" y2="111.01" stroke="#e3a857" stroke-width="1.4" opacity="0.85"/>
    <line x1="183.60" y1="108.23" x2="189.82" y2="119.91" stroke="#e3a857" stroke-width="1.4" opacity="0.85"/>
    <line x1="182.39" y1="116.39" x2="187.43" y2="128.62" stroke="#e3a857" stroke-width="1.4" opacity="0.85"/>
    <line x1="180.38" y1="124.38" x2="184.21" y2="137.05" stroke="#e3a857" stroke-width="1.4" opacity="0.85"/>
    <line x1="177.61" y1="132.15" x2="180.17" y2="145.13" stroke="#e3a857" stroke-width="1.4" opacity="0.85"/>
    <line x1="174.08" y1="139.60" x2="175.36" y2="152.77" stroke="#e3a857" stroke-width="1.4" opacity="0.85"/>
    <line x1="169.84" y1="146.67" x2="169.83" y2="159.90" stroke="#e3a857" stroke-width="1.4" opacity="0.85"/>
    <line x1="164.93" y1="153.29" x2="163.62" y2="166.46" stroke="#e3a857" stroke-width="1.4" opacity="0.85"/>
    <line x1="159.40" y1="159.40" x2="156.80" y2="172.37" stroke="#e3a857" stroke-width="1.4" opacity="0.85"/>
    <line x1="153.29" y1="164.93" x2="149.43" y2="177.59" stroke="#e3a857" stroke-width="1.4" opacity="0.85"/>
    <line x1="146.67" y1="169.84" x2="141.59" y2="182.06" stroke="#e3a857" stroke-width="1.4" opacity="0.85"/>
    <line x1="139.60" y1="174.08" x2="133.34" y2="185.75" stroke="#e3a857" stroke-width="1.4" opacity="0.85"/>
    <line x1="132.15" y1="177.61" x2="124.78" y2="188.60" stroke="#e3a857" stroke-width="1.4" opacity="0.85"/>
    <line x1="124.38" y1="180.38" x2="115.97" y2="190.60" stroke="#e3a857" stroke-width="1.4" opacity="0.85"/>
    <line x1="116.39" y1="182.39" x2="107.02" y2="191.73" stroke="#e3a857" stroke-width="1.4" opacity="0.85"/>
    <line x1="108.23" y1="183.60" x2="97.99" y2="191.98" stroke="#e3a857" stroke-width="1.4" opacity="0.85"/>
    <line x1="100.00" y1="184.00" x2="88.99" y2="191.34" stroke="#e3a857" stroke-width="1.4" opacity="0.85"/>
    <line x1="91.77" y1="183.60" x2="80.09" y2="189.82" stroke="#e3a857" stroke-width="1.4" opacity="0.85"/>
    <line x1="83.61" y1="182.39" x2="71.38" y2="187.43" stroke="#e3a857" stroke-width="1.4" opacity="0.85"/>
    <line x1="75.62" y1="180.38" x2="62.95" y2="184.21" stroke="#e3a857" stroke-width="1.4" opacity="0.85"/>
    <line x1="67.85" y1="177.61" x2="54.87" y2="180.17" stroke="#e3a857" stroke-width="1.4" opacity="0.85"/>
    <line x1="60.40" y1="174.08" x2="47.23" y2="175.36" stroke="#e3a857" stroke-width="1.4" opacity="0.85"/>
    <line x1="53.33" y1="169.84" x2="40.10" y2="169.83" stroke="#e3a857" stroke-width="1.4" opacity="0.85"/>
    <line x1="46.71" y1="164.93" x2="33.54" y2="163.62" stroke="#e3a857" stroke-width="1.4" opacity="0.85"/>
    <line x1="40.60" y1="159.40" x2="27.63" y2="156.80" stroke="#e3a857" stroke-width="1.4" opacity="0.85"/>
    <line x1="35.07" y1="153.29" x2="22.41" y2="149.43" stroke="#e3a857" stroke-width="1.4" opacity="0.85"/>
    <line x1="30.16" y1="146.67" x2="17.94" y2="141.59" stroke="#e3a857" stroke-width="1.4" opacity="0.85"/>
    <line x1="25.92" y1="139.60" x2="14.25" y2="133.34" stroke="#e3a857" stroke-width="1.4" opacity="0.85"/>
    <line x1="22.39" y1="132.15" x2="11.40" y2="124.78" stroke="#e3a857" stroke-width="1.4" opacity="0.85"/>
    <line x1="19.62" y1="124.38" x2="9.40" y2="115.97" stroke="#e3a857" stroke-width="1.4" opacity="0.85"/>
    <line x1="17.61" y1="116.39" x2="8.27" y2="107.02" stroke="#e3a857" stroke-width="1.4" opacity="0.85"/>
    <line x1="16.40" y1="108.23" x2="8.02" y2="97.99" stroke="#e3a857" stroke-width="1.4" opacity="0.85"/>
    <line x1="16.00" y1="100.00" x2="8.66" y2="88.99" stroke="#e3a857" stroke-width="1.4" opacity="0.85"/>
    <line x1="16.40" y1="91.77" x2="10.18" y2="80.09" stroke="#e3a857" stroke-width="1.4" opacity="0.85"/>
    <line x1="17.61" y1="83.61" x2="12.57" y2="71.38" stroke="#e3a857" stroke-width="1.4" opacity="0.85"/>
    <line x1="19.62" y1="75.62" x2="15.79" y2="62.95" stroke="#e3a857" stroke-width="1.4" opacity="0.85"/>
    <line x1="22.39" y1="67.85" x2="19.83" y2="54.87" stroke="#e3a857" stroke-width="1.4" opacity="0.85"/>
    <line x1="25.92" y1="60.40" x2="24.64" y2="47.23" stroke="#e3a857" stroke-width="1.4" opacity="0.85"/>
    <line x1="30.16" y1="53.33" x2="30.17" y2="40.10" stroke="#e3a857" stroke-width="1.4" opacity="0.85"/>
    <line x1="35.07" y1="46.71" x2="36.38" y2="33.54" stroke="#e3a857" stroke-width="1.4" opacity="0.85"/>
    <line x1="40.60" y1="40.60" x2="43.20" y2="27.63" stroke="#e3a857" stroke-width="1.4" opacity="0.85"/>
    <line x1="46.71" y1="35.07" x2="50.57" y2="22.41" stroke="#e3a857" stroke-width="1.4" opacity="0.85"/>
    <line x1="53.33" y1="30.16" x2="58.41" y2="17.94" stroke="#e3a857" stroke-width="1.4" opacity="0.85"/>
    <line x1="60.40" y1="25.92" x2="66.66" y2="14.25" stroke="#e3a857" stroke-width="1.4" opacity="0.85"/>
    <line x1="67.85" y1="22.39" x2="75.22" y2="11.40" stroke="#e3a857" stroke-width="1.4" opacity="0.85"/>
    <line x1="75.62" y1="19.62" x2="84.03" y2="9.40" stroke="#e3a857" stroke-width="1.4" opacity="0.85"/>
    <line x1="83.61" y1="17.61" x2="92.98" y2="8.27" stroke="#e3a857" stroke-width="1.4" opacity="0.85"/>
    <line x1="91.77" y1="16.40" x2="102.01" y2="8.02" stroke="#e3a857" stroke-width="1.4" opacity="0.85"/>
    <line x1="100.00" y1="16.00" x2="111.01" y2="8.66" stroke="#e3a857" stroke-width="1.4" opacity="0.85"/>
    <line x1="108.23" y1="16.40" x2="119.91" y2="10.18" stroke="#e3a857" stroke-width="1.4" opacity="0.85"/>
    <line x1="116.39" y1="17.61" x2="128.62" y2="12.57" stroke="#e3a857" stroke-width="1.4" opacity="0.85"/>
    <line x1="124.38" y1="19.62" x2="137.05" y2="15.79" stroke="#e3a857" stroke-width="1.4" opacity="0.85"/>
    <line x1="132.15" y1="22.39" x2="145.13" y2="19.83" stroke="#e3a857" stroke-width="1.4" opacity="0.85"/>
    <line x1="139.60" y1="25.92" x2="152.77" y2="24.64" stroke="#e3a857" stroke-width="1.4" opacity="0.85"/>
    <line x1="146.67" y1="30.16" x2="159.90" y2="30.17" stroke="#e3a857" stroke-width="1.4" opacity="0.85"/>
    <line x1="153.29" y1="35.07" x2="166.46" y2="36.38" stroke="#e3a857" stroke-width="1.4" opacity="0.85"/>
    <line x1="159.40" y1="40.60" x2="172.37" y2="43.20" stroke="#e3a857" stroke-width="1.4" opacity="0.85"/>
    <line x1="164.93" y1="46.71" x2="177.59" y2="50.57" stroke="#e3a857" stroke-width="1.4" opacity="0.85"/>
    <line x1="169.84" y1="53.33" x2="182.06" y2="58.41" stroke="#e3a857" stroke-width="1.4" opacity="0.85"/>
    <line x1="174.08" y1="60.40" x2="185.75" y2="66.66" stroke="#e3a857" stroke-width="1.4" opacity="0.85"/>
    <line x1="177.61" y1="67.85" x2="188.60" y2="75.22" stroke="#e3a857" stroke-width="1.4" opacity="0.85"/>
    <line x1="180.38" y1="75.62" x2="190.60" y2="84.03" stroke="#e3a857" stroke-width="1.4" opacity="0.85"/>
    <line x1="182.39" y1="83.61" x2="191.73" y2="92.98" stroke="#e3a857" stroke-width="1.4" opacity="0.85"/>
    <line x1="183.60" y1="91.77" x2="191.98" y2="102.01" stroke="#e3a857" stroke-width="1.4" opacity="0.85"/>
    <!-- Central 4-petal Intersecting Emblem -->
    <!-- Vertical Petal Pair -->
    <path d="M 100 24 C 118 24 136 60 100 100 C 64 60 82 24 100 24 Z" fill="url(#goldGrad1)" opacity="0.85"/>
    <path d="M 100 176 C 118 176 136 140 100 100 C 64 140 82 176 100 176 Z" fill="url(#goldGrad1)" opacity="0.85"/>
    <!-- Horizontal Petal Pair -->
    <path d="M 24 100 C 24 82 60 64 100 100 C 60 136 24 118 24 100 Z" fill="url(#goldGrad2)" opacity="0.8" style="mix-blend-mode: screen;"/>
    <path d="M 176 100 C 176 82 140 64 100 100 C 140 136 176 118 176 100 Z" fill="url(#goldGrad2)" opacity="0.8" style="mix-blend-mode: screen;"/>
  </g>
</svg>